<svg id="Delete_Icon" xmlns="http://www.w3.org/2000/svg" width="17.5" height="21.5" viewBox="0 0 17.5 21.5">
  <g id="Delete_2" data-name="Delete 2" transform="translate(-3.25 -1.25)">
    <path id="Vector" d="M13.5,4.75V5h3.25a.75.75,0,0,1,0,1.5H.75A.75.75,0,0,1,.75,5H4V4.75a4.75,4.75,0,0,1,9.5,0Zm-8,0V5H12V4.75a3.25,3.25,0,0,0-6.5,0Z" transform="translate(3.25 1.25)" fill="#ec4f4f" fill-rule="evenodd"/>
    <path id="Vector-2" data-name="Vector" d="M2.976,11.426l.262,1.885a20.042,20.042,0,0,0,.691,3.741,4.564,4.564,0,0,0,2.3,2.744A7.04,7.04,0,0,0,8.75,20a7.04,7.04,0,0,0,2.525-.2,4.564,4.564,0,0,0,2.3-2.744,20.041,20.041,0,0,0,.691-3.741l.262-1.885c.222-1.6.388-2.789.479-3.747a.75.75,0,1,1,1.493.142c-.094.994-.265,2.219-.484,3.794l-.282,2.023a20.271,20.271,0,0,1-.752,3.931,6.041,6.041,0,0,1-3.121,3.609,7.646,7.646,0,0,1-2.945.322H8.587a7.646,7.646,0,0,1-2.945-.322,6.041,6.041,0,0,1-3.121-3.609,20.272,20.272,0,0,1-.752-3.931l-.282-2.023C1.268,10.04,1.1,8.815,1,7.821A.75.75,0,1,1,2.5,7.679c.091.958.257,2.151.479,3.747Z" transform="translate(3.25 1.25)" fill="#ec4f4f"/>
    <path id="Vector-3" data-name="Vector" d="M7.5,16.75a.75.75,0,0,1-1.5,0v-8a.75.75,0,0,1,1.5,0Z" transform="translate(3.25 1.25)" fill="#ec4f4f"/>
    <path id="Vector-4" data-name="Vector" d="M11.5,16.75a.75.75,0,0,1-1.5,0v-8a.75.75,0,0,1,1.5,0Z" transform="translate(3.25 1.25)" fill="#ec4f4f"/>
  </g>
</svg>
