<svg xmlns="http://www.w3.org/2000/svg" width="24" height="24.113" viewBox="0 0 24 24.113">
  <path id="Doctor_Icon" d="M16.59,20.3a.8.8,0,1,1-.567.235A.8.8,0,0,1,16.59,20.3ZM17.3,8.407a.763.763,0,0,1,.432.29,1.633,1.633,0,0,1,.212,1.177,2.974,2.974,0,0,1-.433,1.216,1.13,1.13,0,0,1-.981.62,3.4,3.4,0,0,1-1.469,2.63l-.312.3-.106.1.025.018a2.877,2.877,0,0,1-.31.216,3.474,3.474,0,0,1-.9.484,4.017,4.017,0,0,1-1.342.22,4.2,4.2,0,0,1-1.395-.216l-.2-.071a3.174,3.174,0,0,1-.734-.326L9.687,15a4.235,4.235,0,0,1-.443.936l3.044,2.12,2.86-2.383a4.5,4.5,0,0,1-.437-.887c1.261.9,1.534,2.768,1.493,4.278a2.785,2.785,0,0,1-.016.312,1.748,1.748,0,0,0-.855,2.942,1.665,1.665,0,0,0,2.309.137,1.746,1.746,0,0,0,.671-1.373A1.557,1.557,0,0,0,18.1,20.3a2.115,2.115,0,0,0-1.1-.9c-.033-.018,0-.092,0-.3a9.3,9.3,0,0,0-.286-2.762,4.119,4.119,0,0,0,.667.277c1.746.412,3.891.588,4.66,1.02a3.138,3.138,0,0,1,.981.836c.681.9.737,3.483.981,4.582a1.09,1.09,0,0,1-1.142,1.067H1.142A1.109,1.109,0,0,1,0,23.038c.247-1.1.306-3.686.981-4.582a3.056,3.056,0,0,1,.991-.836c1.093-.608,3.77-.773,5.551-1.267a6.484,6.484,0,0,0-.31,1.569c-.2.151-.714.328-.877.522a7.561,7.561,0,0,0-.757,1.085.392.392,0,0,0-.053.2c0,.055.057.112.033.159l-.037.073a4.483,4.483,0,0,0-.685,2.55.714.714,0,0,0,.518.445,2.438,2.438,0,0,0,.618.08h.184a.6.6,0,0,0,.1.076.808.808,0,0,0,.131.063.506.506,0,0,0,.178.033.492.492,0,0,0,.492-.5.5.5,0,0,0-.045-.2.506.506,0,0,0-.467-.316c-.18,0-.437.09-.437.271h0v.012H5.986a1.8,1.8,0,0,1-.457-.055c-.088-.024-.139-.057-.151-.094A4.189,4.189,0,0,1,6.024,20.2L6.08,20.1a.392.392,0,0,0,.2-.173,6.669,6.669,0,0,1,.669-.965,1.391,1.391,0,0,1,.663-.337H7.65a2.065,2.065,0,0,1,.337.3,6.01,6.01,0,0,1,.706.981c.045.08.155.1.2.175a4.212,4.212,0,0,1,.741,2.169c-.016.086-.086.137-.2.173a2.058,2.058,0,0,1-.514.073.342.342,0,0,0-.02-.037h0c0-.18-.259-.265-.439-.271a.506.506,0,0,0-.467.316.532.532,0,0,0-.045.2.492.492,0,0,0,.492.492.516.516,0,0,0,.18-.033.785.785,0,0,0,.129-.063.641.641,0,0,0,.071-.049h.071a2.4,2.4,0,0,0,.718-.094.761.761,0,0,0,.569-.6,5.189,5.189,0,0,0-.773-2.491.392.392,0,0,0,.031-.159.418.418,0,0,0-.055-.2,7.061,7.061,0,0,0-.8-1.118c-.163-.182-.522-.235-.559-.479a3.4,3.4,0,0,1,.588-2.1,2.971,2.971,0,0,0,.286-.43l.063-.086a1.632,1.632,0,0,1,.669-.408q-.143-.108-.288-.235l-.3-.271-.02-.018A3.545,3.545,0,0,1,7.448,11.7c-.545-.047-.932-.565-1.122-1.177A2.981,2.981,0,0,1,6.2,9.517a1.534,1.534,0,0,1,.3-.894A.845.845,0,0,1,6.618,8.5L6.59,8.478c-.126-1.569.241-4.28-1.457-4.794,3.2-3.986,6.736-4.715,9.7-2.283,3.076.171,4.56,4.611,2.469,7.006ZM8.275,7.427a2.746,2.746,0,0,0-.039,1.491.328.328,0,0,1-.524.347c-.392-.333-.63-.365-.732-.243a.922.922,0,0,0-.147.51,2.309,2.309,0,0,0,.1.785c.133.437.392.8.7.706a.3.3,0,0,1,.094-.016.328.328,0,0,1,.335.32,3.009,3.009,0,0,0,1.373,2.53l.02.016.314.275a3.309,3.309,0,0,0,1.142.679,3.391,3.391,0,0,0,.871.171,4.9,4.9,0,0,0,.657-.031,4.646,4.646,0,0,0,.873-.178,2.942,2.942,0,0,0,.963-.634l.318-.3a2.8,2.8,0,0,0,1.247-2.591.328.328,0,0,1,.508-.3c.222.147.441,0,.6-.243a2.281,2.281,0,0,0,.331-.938,1.034,1.034,0,0,0-.08-.69c-.078-.1-.288-.061-.692.247a.328.328,0,0,1-.535-.3,5.321,5.321,0,0,0-.224-3.4,3.131,3.131,0,0,0-1.373-1.24,5.148,5.148,0,0,1-2.9,1.132,4.529,4.529,0,0,0-2.32.81,2.23,2.23,0,0,0-.877,1.094Z" transform="translate(0 -0.003)"/>
</svg>
