<svg xmlns="http://www.w3.org/2000/svg" xmlns:xlink="http://www.w3.org/1999/xlink" width="24" height="21.329" viewBox="0 0 24 21.329">
  <defs>
    <linearGradient id="linear-gradient" x1="0.115" y1="0.249" x2="0.735" y2="1" gradientUnits="objectBoundingBox">
      <stop offset="0"/>
      <stop offset="1" stop-color="#a71523"/>
    </linearGradient>
  </defs>
  <path id="Edit_Icon" d="M16.775,4.463l3.758,3.758a.407.407,0,0,1,0,.575l-9.1,9.1-3.867.429a.81.81,0,0,1-.9-.9L7.1,13.563l9.1-9.1A.407.407,0,0,1,16.775,4.463Zm6.75-.954L21.492,1.475a1.63,1.63,0,0,0-2.3,0L17.717,2.95a.407.407,0,0,0,0,.575l3.758,3.758a.407.407,0,0,0,.575,0l1.475-1.475A1.63,1.63,0,0,0,23.525,3.508ZM16,15.421v4.242H2.667V6.329h9.575a.512.512,0,0,0,.354-.146l1.667-1.667a.5.5,0,0,0-.354-.854H2a2,2,0,0,0-2,2V20.329a2,2,0,0,0,2,2H16.667a2,2,0,0,0,2-2V13.754a.5.5,0,0,0-.854-.354l-1.667,1.667A.512.512,0,0,0,16,15.421Z" transform="translate(0 -1)" fill="url(#linear-gradient)"/>
</svg>
