<svg id="Logout_Icon" xmlns="http://www.w3.org/2000/svg" width="21.75" height="20.88" viewBox="0 0 21.75 20.88">
  <g id="Logout" transform="translate(0 0)">
    <path id="Vector" d="M9.57,17.11a.87.87,0,0,0,1.74,0V7.83h2.61a14.57,14.57,0,0,1,2.067.071,5.8,5.8,0,0,1,4.821,4.821,14.571,14.571,0,0,1,.071,2.067,14.571,14.571,0,0,1-.071,2.067,5.8,5.8,0,0,1-4.821,4.821,14.571,14.571,0,0,1-2.067.071H6.96a14.571,14.571,0,0,1-2.067-.071A5.8,5.8,0,0,1,.071,16.857,14.57,14.57,0,0,1,0,14.79a14.57,14.57,0,0,1,.071-2.067A5.8,5.8,0,0,1,4.893,7.9,14.57,14.57,0,0,1,6.96,7.83H9.57Zm0-9.28V2.25c-.374.38-.819.939-1.467,1.756L6.482,6.051A.87.87,0,0,1,5.118,4.969L6.773,2.883A23.929,23.929,0,0,1,8.358,1,3.034,3.034,0,0,1,10.012.034a2.714,2.714,0,0,1,.855,0A3.034,3.034,0,0,1,12.522,1a23.928,23.928,0,0,1,1.586,1.882l1.654,2.087A.87.87,0,0,1,14.4,6.051L12.777,4.005c-.648-.817-1.092-1.376-1.467-1.756V7.83Z" transform="translate(21.75 0) rotate(90)" fill="red" fill-rule="evenodd"/>
  </g>
</svg>
