<svg xmlns="http://www.w3.org/2000/svg" width="24" height="16.799" viewBox="0 0 24 16.799">
  <path id="Packages_Icon" d="M15.964,8.4a1.818,1.818,0,0,1-1.552-.877L12,3.526l-2.407,4A1.824,1.824,0,0,1,8.037,8.4a1.725,1.725,0,0,1-.5-.071L2.4,6.863v6.675A1.2,1.2,0,0,0,3.309,14.7l8.107,2.029a2.438,2.438,0,0,0,1.162,0L20.693,14.7a1.2,1.2,0,0,0,.907-1.162V6.863L16.463,8.33A1.724,1.724,0,0,1,15.964,8.4Zm7.972-4.207L22.005.339a.612.612,0,0,0-.626-.334L12,1.2l3.439,5.7a.616.616,0,0,0,.694.274L23.554,5.06A.618.618,0,0,0,23.936,4.194ZM2,.339.065,4.194a.611.611,0,0,0,.379.862L7.865,7.175A.616.616,0,0,0,8.559,6.9L12,1.2,2.619.005A.613.613,0,0,0,2,.339Z"/>
</svg>
