<svg xmlns="http://www.w3.org/2000/svg" width="18.578" height="20.634" viewBox="0 0 18.578 20.634">
  <g id="Search_Icon" transform="translate(0 0)" fill="#fff">
    <path d="M 16.72560119628906 20.38430023193359 C 16.24001121520996 20.38430023193359 15.78593063354492 20.16773986816406 15.47979068756104 19.7901496887207 L 11.59457015991211 14.99324989318848 L 11.47026062011719 14.83977031707764 L 11.29218006134033 14.92518997192383 C 10.24878025054932 15.42566967010498 9.132970809936523 15.67945003509521 7.97575044631958 15.67947006225586 C 7.704780578613281 15.67947006225586 7.429890155792236 15.66497039794922 7.15872049331665 15.63638019561768 C 5.109180450439453 15.42092990875244 3.266320466995239 14.42043972015381 1.969530344009399 12.81919956207275 C 0.6727803349494934 11.21798992156982 0.07728035002946854 9.207699775695801 0.2927303612232208 7.158639907836914 C 0.4932903349399567 5.25078010559082 1.390170335769653 3.49616003036499 2.818170309066772 2.217979907989502 C 4.23615026473999 0.9487800002098083 6.060180187225342 0.249799981713295 7.954270362854004 0.249799981713295 C 8.225000381469727 0.249799981713295 8.49960994720459 0.2642399668693542 8.770450592041016 0.2927299737930298 C 13.00104999542236 0.7374599575996399 16.08107948303223 4.54095983505249 15.63637065887451 8.771360397338867 C 15.48637008666992 10.19377994537354 14.94864082336426 11.54090976715088 14.08133029937744 12.66705989837646 L 13.96086025238037 12.82347965240479 L 14.08511066436768 12.97692966461182 L 17.96951103210449 17.77392959594727 C 18.23908996582031 18.10638046264648 18.36283111572266 18.52379989624023 18.31802940368652 18.94943046569824 C 18.27325057983398 19.37496948242188 18.0654411315918 19.75761985778809 17.73287963867188 20.02691078186035 C 17.44783973693848 20.2573299407959 17.09006118774414 20.38430023193359 16.72560119628906 20.38430023193359 Z M 7.754400253295898 3.066499948501587 C 5.154600143432617 3.066499948501587 3.03950023651123 5.182000160217285 3.03950023651123 7.782299995422363 C 3.03950023651123 10.38210010528564 5.154600143432617 12.49720001220703 7.754400253295898 12.49720001220703 C 10.35420036315918 12.49720001220703 12.46930027008057 10.38210010528564 12.46930027008057 7.782299995422363 C 12.46930027008057 5.182000160217285 10.35420036315918 3.066499948501587 7.754400253295898 3.066499948501587 Z" stroke="none"/>
    <path d="M 16.72560119628906 20.13430023193359 C 17.03305053710938 20.13430023193359 17.33501052856445 20.02706909179688 17.5755500793457 19.83262062072754 C 17.85622978210449 19.60535049438477 18.0316104888916 19.28240013122559 18.06941032409668 18.92326927185059 C 18.10720062255859 18.56411933898926 18.00279998779297 18.21191024780273 17.77522087097168 17.93124961853027 L 13.64232063293457 12.82736968994141 L 13.88327026367188 12.51451015472412 C 14.72235012054443 11.42500972747803 15.242600440979 10.12156009674072 15.38774013519287 8.745229721069336 C 15.818039894104 4.651919841766357 12.83782005310059 0.9716799855232239 8.74429988861084 0.5413599610328674 C 8.482110023498535 0.5137799978256226 8.216300010681152 0.4997999668121338 7.954270362854004 0.4997999668121338 C 6.121800422668457 0.4997999668121338 4.356970310211182 1.176149964332581 2.984900236129761 2.404259920120239 C 1.603220343589783 3.640980005264282 0.7354203462600708 5.33873987197876 0.5413603782653809 7.184780120849609 C 0.33290034532547 9.167420387268066 0.9090903401374817 11.11254978179932 2.163810253143311 12.6618595123291 C 3.418580293655396 14.21121025085449 5.201730251312256 15.17928028106689 7.184930324554443 15.38776016235352 C 7.447440147399902 15.41543960571289 7.713510513305664 15.42947006225586 7.975740432739258 15.42947006225586 C 9.095240592956543 15.42945003509521 10.17467021942139 15.18395042419434 11.18406009674072 14.69977951049805 L 11.54022026062012 14.52894020080566 L 15.67398071289062 19.63270950317383 C 15.93243026733398 19.95148086547852 16.31573104858398 20.13430023193359 16.72560119628906 20.13430023193359 M 7.754400253295898 2.816499948501587 C 10.49206066131592 2.816499948501587 12.71930027008057 5.044149875640869 12.71930027008057 7.782299995422363 C 12.71930027008057 10.51996040344238 10.49206066131592 12.74720001220703 7.754400253295898 12.74720001220703 C 5.016740322113037 12.74720001220703 2.78950023651123 10.51996040344238 2.78950023651123 7.782299995422363 C 2.78950023651123 5.044149875640869 5.016740322113037 2.816499948501587 7.754400253295898 2.816499948501587 M 16.72560119628906 20.63430023193359 C 16.16427993774414 20.63430023193359 15.63943004608154 20.38401031494141 15.28560066223145 19.94759941101074 L 11.40030002593994 15.15060043334961 C 10.32270050048828 15.66749000549316 9.170110702514648 15.92945003509521 7.97575044631958 15.92947006225586 C 7.696090221405029 15.92947006225586 7.412370204925537 15.91450977325439 7.132500171661377 15.88500022888184 C 5.016630172729492 15.66257953643799 3.114060401916504 14.62965965270996 1.775250315666199 12.97653961181641 C 0.4364703595638275 11.32343006134033 -0.1783296465873718 9.247969627380371 0.04410034790635109 7.132500171661377 C 0.2511603534221649 5.162819862365723 1.177130341529846 3.351330041885376 2.651430368423462 2.031699895858765 C 4.115320205688477 0.7214099764823914 5.998570442199707 -0.0002000198292080313 7.954270362854004 -0.0002000198292080313 C 8.233660697937012 -0.0002000198292080313 8.517060279846191 0.01469998061656952 8.796600341796875 0.04409997910261154 C 13.16427993774414 0.5032399892807007 16.34412002563477 4.430009841918945 15.88500022888184 8.797499656677246 C 15.73014068603516 10.2659797668457 15.17494010925293 11.65680027008057 14.27939987182617 12.81960010528564 L 18.1638011932373 17.61660003662109 C 18.47537994384766 18.00085067749023 18.61845016479492 18.48348999023438 18.56665992736816 18.97559928894043 C 18.51489067077637 19.4675407409668 18.27465057373047 19.9099006652832 17.89019966125488 20.22119903564453 C 17.56067085266113 20.48759078979492 17.14707946777344 20.63430023193359 16.72560119628906 20.63430023193359 Z M 7.754400253295898 3.316499948501587 C 5.292450428009033 3.316499948501587 3.28950023651123 5.319849967956543 3.28950023651123 7.782299995422363 C 3.28950023651123 10.24425029754639 5.292450428009033 12.24720001220703 7.754400253295898 12.24720001220703 C 10.21635055541992 12.24720001220703 12.21930027008057 10.24425029754639 12.21930027008057 7.782299995422363 C 12.21930027008057 5.319849967956543 10.21635055541992 3.316499948501587 7.754400253295898 3.316499948501587 Z" stroke="none" fill="#231f20"/>
  </g>
</svg>
