<svg xmlns="http://www.w3.org/2000/svg" width="24" height="18.667" viewBox="0 0 24 18.667">
  <path id="Subscription_Icon" d="M22,3H2A2,2,0,0,0,0,5V19.667a2,2,0,0,0,2,2H22a2,2,0,0,0,2-2V5A2,2,0,0,0,22,3ZM7.333,7A2.667,2.667,0,1,1,4.667,9.667,2.669,2.669,0,0,1,7.333,7ZM12,16.867a.874.874,0,0,1-.933.8H3.6a.874.874,0,0,1-.933-.8v-.8a2.624,2.624,0,0,1,2.8-2.4h.208a4.292,4.292,0,0,0,3.317,0H9.2a2.624,2.624,0,0,1,2.8,2.4Zm9.333-2.2A.334.334,0,0,1,21,15H15a.334.334,0,0,1-.333-.333V14A.334.334,0,0,1,15,13.667h6a.334.334,0,0,1,.333.333Zm0-2.667a.334.334,0,0,1-.333.333H15A.334.334,0,0,1,14.667,12v-.667A.334.334,0,0,1,15,11h6a.334.334,0,0,1,.333.333Zm0-2.667A.334.334,0,0,1,21,9.667H15a.334.334,0,0,1-.333-.333V8.667A.334.334,0,0,1,15,8.333h6a.334.334,0,0,1,.333.333Z" transform="translate(0 -3)"/>
</svg>
