<svg xmlns="http://www.w3.org/2000/svg" xmlns:xlink="http://www.w3.org/1999/xlink" width="24" height="24" viewBox="0 0 24 24">
  <defs>
    <clipPath id="clip-path">
      <rect id="Rectangle_449" data-name="Rectangle 449" width="24" height="24" fill="#a71523"/>
    </clipPath>
  </defs>
  <g id="Group_449" data-name="Group 449" clip-path="url(#clip-path)">
    <path id="homeIcon" d="M11.682,7.842,4,14.168V21a.667.667,0,0,0,.667.667l4.669-.012a.667.667,0,0,0,.664-.67V17a.667.667,0,0,1,.667-.667h2.667A.667.667,0,0,1,14,17v3.985a.667.667,0,0,0,.667.669l4.667.013A.667.667,0,0,0,20,21V14.164L12.32,7.842a.508.508,0,0,0-.637,0Zm12.134,4.3L20.332,9.271V3.5a.5.5,0,0,0-.5-.5H17.5a.5.5,0,0,0-.5.5V6.525L13.27,3.456a2,2,0,0,0-2.542,0L.181,12.142a.5.5,0,0,0-.067.7l1.062,1.292a.5.5,0,0,0,.7.068l9.8-8.072a.508.508,0,0,1,.637,0l9.8,8.072a.5.5,0,0,0,.7-.067l1.062-1.291a.5.5,0,0,0-.071-.7Z" fill="#a71523"/>
  </g>
</svg>
