<svg xmlns="http://www.w3.org/2000/svg" width="25" height="25" viewBox="0 0 25 25">
  <g id="Check_Icon" transform="translate(-758 -428)">
    <g id="Ellipse_5" data-name="Ellipse 5" transform="translate(758 428)" fill="#48bc5f" stroke="#eee" stroke-width="1">
      <circle cx="12.5" cy="12.5" r="12.5" stroke="none"/>
      <circle cx="12.5" cy="12.5" r="12" fill="none"/>
    </g>
    <path id="Check_Icon-2" data-name="Check_Icon" d="M1572.752,737.284l-4.549-4.549a.7.7,0,0,1,0-.99l.991-.99a.7.7,0,0,1,.991,0l3.062,3.064,6.561-6.563a.7.7,0,0,1,.991,0l.991.99a.7.7,0,0,1,0,.99l-8.048,8.048A.7.7,0,0,1,1572.752,737.284Z" transform="translate(-804.498 -291.77)" fill="#fff"/>
  </g>
</svg>
