<svg xmlns="http://www.w3.org/2000/svg" xmlns:xlink="http://www.w3.org/1999/xlink" width="32" height="31.993" viewBox="0 0 32 31.993">
  <defs>
    <linearGradient id="linear-gradient" x1="0.5" x2="0.5" y2="1" gradientUnits="objectBoundingBox">
      <stop offset="0" stop-color="#f0d"/>
      <stop offset="1" stop-color="#80006f"/>
    </linearGradient>
  </defs>
  <path id="Instagram_Icon" d="M17,9.286a8.2,8.2,0,1,0,8.2,8.2A8.19,8.19,0,0,0,17,9.286Zm0,13.535a5.333,5.333,0,1,1,5.333-5.333A5.342,5.342,0,0,1,17,22.821ZM27.451,8.95a1.913,1.913,0,1,1-1.913-1.913A1.909,1.909,0,0,1,27.451,8.95Zm5.433,1.942a9.468,9.468,0,0,0-2.584-6.7A9.53,9.53,0,0,0,23.6,1.6c-2.641-.15-10.558-.15-13.2,0a9.517,9.517,0,0,0-6.7,2.577,9.5,9.5,0,0,0-2.584,6.7c-.15,2.641-.15,10.558,0,13.2a9.468,9.468,0,0,0,2.584,6.7,9.542,9.542,0,0,0,6.7,2.584c2.641.15,10.558.15,13.2,0a9.468,9.468,0,0,0,6.7-2.584,9.53,9.53,0,0,0,2.584-6.7C33.034,21.443,33.034,13.533,32.884,10.892ZM29.472,26.919a5.4,5.4,0,0,1-3.041,3.041c-2.106.835-7.1.643-9.43.643s-7.332.185-9.43-.643a5.4,5.4,0,0,1-3.041-3.041c-.835-2.106-.642-7.1-.642-9.43s-.186-7.332.642-9.43A5.4,5.4,0,0,1,7.57,5.017c2.106-.835,7.1-.642,9.43-.642s7.332-.186,9.43.642a5.4,5.4,0,0,1,3.041,3.041c.835,2.106.643,7.1.643,9.43S30.307,24.82,29.472,26.919Z" transform="translate(-0.997 -1.492)" fill="url(#linear-gradient)"/>
</svg>
