<svg xmlns="http://www.w3.org/2000/svg" xmlns:xlink="http://www.w3.org/1999/xlink" width="21" height="24" viewBox="0 0 21 24">
  <defs>
    <linearGradient id="linear-gradient" x1="0.5" x2="0.5" y2="1" gradientUnits="objectBoundingBox">
      <stop offset="0"/>
      <stop offset="1" stop-color="#a71523"/>
    </linearGradient>
  </defs>
  <path id="Login_Icon" d="M1359.5,4212a6,6,0,1,0-6-6A6,6,0,0,0,1359.5,4212Zm4.2,1.5h-.78a8.173,8.173,0,0,1-6.84,0h-.78a6.3,6.3,0,0,0-6.3,6.3v1.95a2.253,2.253,0,0,0,2.25,2.25h16.5a2.253,2.253,0,0,0,2.25-2.25v-1.95A6.3,6.3,0,0,0,1363.7,4213.5Z" transform="translate(-1349 -4200)" fill="url(#linear-gradient)"/>
</svg>
