<svg xmlns="http://www.w3.org/2000/svg" xmlns:xlink="http://www.w3.org/1999/xlink" width="24" height="24" viewBox="0 0 24 24">
  <defs>
    <clipPath id="clip-path">
      <rect id="Rectangle_541" data-name="Rectangle 541" width="24" height="24" transform="translate(0 0)" fill="#fff"/>
    </clipPath>
    <linearGradient id="linear-gradient" x1="0.5" x2="0.5" y2="1" gradientUnits="objectBoundingBox">
      <stop offset="0"/>
      <stop offset="1" stop-color="#a71523"/>
    </linearGradient>
  </defs>
  <g id="ResetMeals_Icon" transform="translate(0 0)" clip-path="url(#clip-path)">
    <path id="Path_1306" data-name="Path 1306" d="M1667.98,3056.38a11.544,11.544,0,0,0-8.01,3.21l-1.67-1.67a1.124,1.124,0,0,0-1.92.8V3065a1.127,1.127,0,0,0,1.12,1.13h6.28a1.131,1.131,0,0,0,.8-1.93l-1.96-1.95a7.767,7.767,0,0,1,5.31-2.12,7.875,7.875,0,1,1-5.12,13.8.547.547,0,0,0-.76.02l-1.86,1.86a.565.565,0,0,0,.02.82,11.622,11.622,0,1,0,7.77-20.25Z" transform="translate(-1656 -3056.001)" fill="url(#linear-gradient)"/>
  </g>
</svg>
