<svg xmlns="http://www.w3.org/2000/svg" width="34.475" height="28" viewBox="0 0 34.475 28">
  <path id="Twitter_Icon" d="M30.931,9.232c.022.306.022.613.022.919,0,9.341-7.109,20.1-20.1,20.1A19.966,19.966,0,0,1,0,27.082a14.6,14.6,0,0,0,1.706.087,14.15,14.15,0,0,0,8.772-3.019,7.078,7.078,0,0,1-6.606-4.9,8.921,8.921,0,0,0,1.334.109,7.476,7.476,0,0,0,1.859-.241A7.067,7.067,0,0,1,1.4,12.185V12.1a7.116,7.116,0,0,0,3.194.9,7.076,7.076,0,0,1-2.187-9.45,20.084,20.084,0,0,0,14.569,7.394A7.979,7.979,0,0,1,16.8,9.319,7.072,7.072,0,0,1,29.028,4.485a13.911,13.911,0,0,0,4.484-1.706,7.047,7.047,0,0,1-3.106,3.894,14.164,14.164,0,0,0,4.069-1.094A15.187,15.187,0,0,1,30.931,9.232Z" transform="translate(0 -2.254)" fill="#00b9ff"/>
</svg>
