<svg xmlns="http://www.w3.org/2000/svg" width="35" height="35" viewBox="0 0 35 35">
  <g id="UnSelected_Icon" transform="translate(-758 -428)">
    <g id="Ellipse_5" data-name="Ellipse 5" transform="translate(758 428)" fill="#bc7e48" stroke="#eee" stroke-width="1">
      <circle cx="17.5" cy="17.5" r="17.5" stroke="none"/>
      <circle cx="17.5" cy="17.5" r="17" fill="none"/>
    </g>
    <path id="Path_1572" data-name="Path 1572" d="M9.654,7.75l3.98-3.98a1.251,1.251,0,0,0,0-1.769l-.885-.885a1.251,1.251,0,0,0-1.769,0L7,5.1,3.02,1.116a1.251,1.251,0,0,0-1.769,0L.366,2a1.251,1.251,0,0,0,0,1.769l3.98,3.98L.366,11.73a1.251,1.251,0,0,0,0,1.769l.885.885a1.251,1.251,0,0,0,1.769,0L7,10.4l3.98,3.98a1.251,1.251,0,0,0,1.769,0l.885-.885a1.251,1.251,0,0,0,0-1.769Z" transform="translate(768.5 437.75)" fill="#fff"/>
  </g>
</svg>
